<svg xmlns="http://www.w3.org/2000/svg" width="76" height="76" viewBox="0 0 76 76" fill="none"><rect y="0.337891" width="75.3242" height="75.3242" fill="url(#paint0_linear_67_2)"></rect><path fill-rule="evenodd" clip-rule="evenodd" d="M15.3585 34.414L15.5607 34.6307L15.5607 34.6308C15.716 34.7973 15.861 34.9528 16.0071 35.1073L16.0375 35.1396C16.1003 35.2063 16.1636 35.2736 16.2356 35.3287C16.5702 35.5836 16.9042 35.5649 17.2685 35.3563C17.5018 35.2228 17.6002 34.7038 17.4335 34.447C17.2685 34.193 17.0868 33.9438 16.8774 33.726C16.2618 33.0853 15.5966 32.5002 14.8095 32.0737C13.8143 31.5343 12.7621 31.3188 11.6286 31.4853C10.8057 31.6061 9.99626 31.7684 9.20949 32.0385L9.19415 32.0438C9.09965 32.0768 9.01524 32.1063 8.99528 31.9505C8.88908 31.1182 8.84783 30.2852 8.93928 29.448C9.04051 28.5223 9.38146 27.6826 9.82893 26.876C10.3531 25.9312 11.1099 25.1875 11.8773 24.4484C13.388 22.9932 15.2157 22.2135 17.2646 21.9037C17.5444 21.8614 17.8261 21.8319 18.1079 21.8023L18.108 21.8023C18.2772 21.7846 18.4464 21.7669 18.6153 21.7463C18.7496 21.7299 18.8593 21.7639 18.9715 21.8403C20.5539 22.917 21.9202 24.219 23.1416 25.6938C24.6448 27.5087 25.8077 29.5112 26.6597 31.7012C26.7195 31.8549 26.8146 31.949 26.9685 31.9922C27.2957 32.0843 27.5981 32.0737 27.8469 31.7999C28.0906 31.5317 28.1566 31.2369 28.0081 30.8988C27.1186 28.8743 26.0733 26.9404 24.7103 25.1895C24.545 24.9771 24.3841 24.7604 24.2337 24.5374C24.1861 24.467 24.1624 24.3706 24.1558 24.2839C24.0489 22.8741 24.5816 21.6956 25.4815 20.6524C26.6167 19.336 28.0946 18.7908 29.7911 18.7328C29.9461 18.7275 30.0028 18.7755 30.031 18.9409C30.1001 19.3449 30.1945 19.7457 30.2987 20.1426C30.4055 20.55 30.8018 20.8009 31.2137 20.7126C32.5028 20.4365 33.7842 20.1297 34.9898 19.5759C35.1704 19.4929 35.3466 19.4004 35.5229 19.308L35.5229 19.3079C35.6102 19.2621 35.6975 19.2163 35.7854 19.1717C35.8091 19.1596 35.8338 19.1493 35.8659 19.1359C35.8825 19.1289 35.9012 19.1211 35.9227 19.1118L35.8443 25.371C35.8156 25.3448 35.7896 25.3229 35.7663 25.3033L35.7663 25.3033C35.7238 25.2675 35.6902 25.2392 35.6643 25.205C35.3222 24.7511 34.9577 24.3197 34.5206 23.9511C33.4569 23.0538 32.2268 22.523 30.8592 22.3335C30.2234 22.2453 29.5767 22.2274 28.9333 22.2096H28.9332L28.8244 22.2066C28.5676 22.1993 28.3039 22.2619 28.0512 22.3242C27.6882 22.414 27.4927 22.7284 27.5394 23.0969C27.5772 23.3954 27.9006 23.6794 28.2283 23.6898C28.4102 23.6956 28.5925 23.6969 28.7747 23.6982H28.7747C29.1107 23.7006 29.4466 23.703 29.7801 23.7334C30.9708 23.8417 32.1186 24.1179 33.123 24.8043C33.8477 25.2993 34.3354 26.0051 34.761 26.7584C35.3034 27.7188 35.6159 28.7607 35.8609 29.8271C35.8788 29.9041 35.8787 29.9862 35.8786 30.0664L35.8786 30.0802C35.8793 34.4278 35.8793 38.7753 35.8793 43.1228V43.7389C35.7709 43.7208 35.6679 43.7031 35.5686 43.686L35.5685 43.686L35.5684 43.686C35.3692 43.6517 35.1845 43.62 34.9993 43.5923C34.8523 43.5705 34.7055 43.5471 34.5587 43.5237L34.5585 43.5237C34.1592 43.4601 33.7598 43.3965 33.358 43.3632C32.7302 43.3113 32.1143 43.4419 31.514 43.6178C30.5793 43.8919 29.831 44.4444 29.2275 45.2023C28.8416 45.6867 28.499 46.1962 28.2696 46.7758C28.1388 47.1062 28.2392 47.4307 28.5418 47.6249C28.916 47.8646 29.1695 47.8752 29.4354 47.645C29.5065 47.5833 29.5563 47.4919 29.602 47.4071C29.6688 47.2829 29.7327 47.1572 29.7967 47.0316L29.7967 47.0315L29.7967 47.0314C29.9093 46.8102 30.0218 46.5891 30.1493 46.3767C30.5618 45.6895 31.1812 45.2624 31.9572 45.1044C33.1003 44.8715 34.2395 44.8827 35.3478 45.3082C35.8454 45.4989 35.8458 45.5036 35.8823 46.0248L35.8839 46.0477C35.9396 46.8358 35.9224 47.6196 35.8043 48.4019C35.6755 49.2556 35.1853 49.8252 34.4262 50.1888C34.3639 50.2185 34.2913 50.2344 34.2221 50.2404L34.0436 50.2552L34.0436 50.2552C33.6085 50.2916 33.1734 50.3279 32.7377 50.354C32.6378 50.3599 32.5371 50.3519 32.4363 50.3438C32.3604 50.3378 32.2845 50.3318 32.2087 50.3316L31.5607 50.3315C26.8335 50.3302 22.1062 50.3289 17.3789 50.331C16.7981 50.3312 16.2173 50.3359 15.6365 50.3406C14.5365 50.3495 13.4366 50.3584 12.3373 50.3369C11.1357 50.3137 10.0506 49.9113 9.13179 49.1043C8.51964 48.5671 8.16461 47.8973 8.01633 47.1029C7.87269 46.334 7.81305 45.5665 8.06852 44.8132C8.15955 44.545 8.30387 44.2928 8.44583 44.0447L8.47176 43.9994C8.51169 43.9298 8.6265 43.8711 8.71165 43.864C10.8004 43.6876 12.5284 44.3536 13.8044 46.063C13.8175 46.0806 13.8305 46.0983 13.8436 46.1161L13.8437 46.1162C13.8979 46.1899 13.9523 46.264 14.0149 46.33C14.253 46.5814 14.6524 46.6458 14.883 46.471C15.1804 46.2457 15.3534 45.8024 15.1589 45.4598C14.4806 44.2638 13.4841 43.4243 12.2401 42.897C11.7056 42.6704 11.1117 42.565 10.5344 42.4633C10.1012 42.3871 9.66322 42.3385 9.22511 42.29C8.97989 42.2628 8.73462 42.2356 8.49015 42.2035C8.40035 42.1916 8.30012 42.1492 8.23352 42.089C7.51435 41.4398 7.12072 40.6127 6.96383 39.6709C6.89888 39.2814 6.86376 38.8836 6.85747 38.4888C6.85095 38.0666 6.98633 37.6717 7.12124 37.2783L7.12124 37.2783C7.15438 37.1816 7.18749 37.0851 7.21846 36.9882C7.60365 35.7829 8.25904 34.7425 9.16492 33.8612C9.25422 33.7744 9.36423 33.7028 9.47539 33.6455C10.5067 33.1137 11.6168 32.9791 12.7572 33.0083C13.0699 33.0162 13.358 33.1171 13.6064 33.306C13.6758 33.3585 13.7533 33.465 13.748 33.5416L13.7425 33.6244C13.6877 34.4453 13.6328 35.2688 13.2451 36.0217C12.9892 36.5186 12.5986 36.9121 12.2116 37.3021L12.2066 37.3071C12.0301 37.4849 11.8389 37.6478 11.6475 37.8108L11.6475 37.8108L11.6474 37.8108C11.5257 37.9145 11.404 38.0181 11.286 38.1257L11.2677 38.1424L11.2677 38.1424C11.1487 38.2505 11.0237 38.3642 10.9485 38.5009C10.7151 38.9257 10.925 39.5283 11.5572 39.6267C11.7134 39.6509 11.9156 39.576 12.0546 39.4835C13.0875 38.7955 13.9798 37.9693 14.5656 36.8517C14.8661 36.2783 15.1258 35.6907 15.2346 35.047C15.247 34.9743 15.2555 34.9008 15.264 34.8273C15.2718 34.76 15.2797 34.6926 15.2904 34.6257C15.2966 34.588 15.3099 34.5513 15.3274 34.5029L15.3274 34.5029C15.3367 34.4772 15.3473 34.4482 15.3585 34.414ZM27.2057 13.7084L27.2057 13.7084C27.1015 13.7993 27.0004 13.8874 26.9061 13.9824C26.4473 14.4451 25.9917 14.911 25.5391 15.3797C25.285 15.6429 25.177 15.9511 25.2987 16.3126C25.3854 16.5695 25.5474 16.7574 25.8208 16.8202C26.747 17.0331 27.6827 17.1883 28.6304 17.2697C28.6979 17.2755 28.7651 17.2852 28.823 17.2936L28.8237 17.2937C28.8483 17.2973 28.8712 17.3006 28.8918 17.3033C25.6841 17.8566 23.6044 19.7082 22.6308 22.845C22.6121 22.833 22.5949 22.8229 22.5791 22.8135C22.5477 22.7951 22.5217 22.7797 22.5002 22.7595C21.6792 21.9856 20.8223 21.2549 19.8994 20.6041C19.8129 20.543 19.8048 20.4853 19.8384 20.3899C20.3566 18.9227 21.1157 17.6078 22.2946 16.5699C22.863 16.0695 23.4525 15.5914 24.0512 15.1275C25.0178 14.3789 26.1433 13.9498 27.2914 13.5731C27.2985 13.5707 27.307 13.5724 27.3203 13.5751C27.3284 13.5768 27.3383 13.5788 27.3509 13.5805C27.3021 13.6243 27.2536 13.6666 27.2057 13.7084ZM38.5077 43.7252V43.0828L38.508 40.3548C38.5084 37.0018 38.5089 33.6487 38.5033 30.2956C38.5026 29.8875 38.6014 29.5053 38.7012 29.119L38.7044 29.1066C38.9774 28.0491 39.3971 27.0563 39.9996 26.1418C40.6616 25.1365 41.5622 24.4665 42.7173 24.1138C43.6284 23.8355 44.5535 23.7028 45.5025 23.7061C45.7081 23.7068 45.9139 23.7028 46.1193 23.6973C46.4717 23.6884 46.8029 23.4152 46.8507 23.0971C46.9051 22.7361 46.6988 22.4213 46.3201 22.3133C46.1375 22.2611 45.948 22.2112 45.7596 22.2038C44.6066 22.1581 43.4613 22.223 42.3544 22.5804C40.8622 23.0621 39.6166 23.8973 38.7084 25.198C38.6854 25.2309 38.6584 25.2611 38.6314 25.2912L38.6314 25.2912C38.6188 25.3052 38.6062 25.3193 38.594 25.3336L38.5438 25.3166L38.4743 19.7875C38.5048 19.7982 38.5319 19.8073 38.5567 19.8156C38.6047 19.8316 38.6438 19.8447 38.6815 19.861C39.4764 20.2065 40.3011 20.4604 41.1404 20.6717C41.2141 20.6902 41.2854 20.718 41.3568 20.7458C41.4236 20.7718 41.4904 20.7979 41.5592 20.8163C41.9282 20.9152 42.2701 20.8064 42.4601 20.4737C42.6748 20.0977 42.8644 19.7074 43.0539 19.3173L43.054 19.3173C43.0963 19.2302 43.1386 19.1431 43.1811 19.0562C43.224 18.9686 43.2567 18.9051 43.3659 18.8821C45.122 18.5127 46.7341 18.8723 48.1474 19.9475C49.1327 20.697 49.8045 21.7083 50.1144 22.9278C50.2324 23.3917 50.2407 23.8689 50.2099 24.3444C50.2041 24.4336 50.1426 24.5268 50.0871 24.604C49.9225 24.8334 49.7537 25.06 49.5849 25.2865L49.5849 25.2867C49.2496 25.7367 48.9144 26.1867 48.6123 26.6578C47.7508 28.0011 46.9932 29.4042 46.3671 30.8748C46.1917 31.287 46.308 31.681 46.676 31.9404C46.9042 32.1014 47.394 32.089 47.5991 31.9028C47.6628 31.845 47.7006 31.7521 47.7343 31.6687C48.3403 30.1666 49.0343 28.7074 49.9713 27.3817C51.1489 25.7157 52.4428 24.1481 54.0478 22.8661C54.3011 22.6638 54.5613 22.4702 54.8215 22.2765C54.9764 22.1612 55.1314 22.0459 55.2849 21.9288C55.4606 21.7946 55.642 21.7449 55.8733 21.7623C57.0173 21.8481 58.1312 22.0665 59.2182 22.4326C60.4995 22.864 61.5903 23.5994 62.5639 24.5205C63.3482 25.2626 64.0811 26.0427 64.6111 27.0021C65.2503 28.1587 65.5379 29.3851 65.4733 30.6982C65.462 30.9267 65.4426 31.1547 65.4232 31.3827V31.3828C65.4083 31.5571 65.3935 31.7315 65.3823 31.9061C65.3722 32.0574 65.3189 32.0819 65.1784 32.0342C64.5135 31.8079 63.8359 31.6275 63.139 31.5335L63.0387 31.52C62.418 31.4358 61.7937 31.3512 61.1716 31.4813C60.2351 31.6777 59.3771 32.0615 58.6422 32.6808C58.1934 33.0594 57.7696 33.4684 57.3483 33.8779C57.2039 34.0181 57.0904 34.1939 56.9801 34.3648L56.98 34.3649L56.978 34.368C56.8041 34.6375 56.8365 35.0979 57.0302 35.302C57.2278 35.5106 57.7161 35.5893 57.9828 35.4352C58.1213 35.3552 58.247 35.2457 58.3607 35.1312C58.5083 34.9822 58.6495 34.8269 58.8008 34.6604C58.8687 34.5857 58.9386 34.5087 59.0121 34.4291C59.0233 34.464 59.0345 34.4948 59.0447 34.5228L59.0448 34.523L59.0448 34.523C59.0643 34.5765 59.0803 34.6205 59.0865 34.6659C59.336 36.5285 60.2924 37.9635 61.7596 39.0893C61.7762 39.102 61.7928 39.1148 61.8093 39.1276C61.8242 39.1391 61.8391 39.1507 61.854 39.1622C62.0129 39.2853 62.1723 39.4089 62.3433 39.5127C62.8545 39.8227 63.4218 39.5083 63.5169 38.9784C63.5644 38.7149 63.491 38.4821 63.2959 38.3023C63.2016 38.2156 63.1017 38.1345 63.002 38.0535L63.0019 38.0535L63.0019 38.0535C62.8703 37.9467 62.7388 37.8399 62.6203 37.7202C62.2019 37.2975 61.7848 36.8713 61.3998 36.4187C60.9965 35.9453 60.8484 35.3554 60.7596 34.7533C60.733 34.5734 60.7129 34.3926 60.6927 34.2118L60.6926 34.2112C60.6743 34.0471 60.656 33.8829 60.6329 33.7194C60.6007 33.4934 60.6662 33.3223 60.8835 33.2419C60.9348 33.223 60.9863 33.2024 61.038 33.1817C61.2185 33.1094 61.4017 33.0361 61.5861 33.0279C62.6804 32.9793 63.747 33.1104 64.7591 33.5777C65.0969 33.7336 65.3328 33.9856 65.5718 34.2441C66.5995 35.3542 67.1548 36.7018 67.482 38.1509C67.5914 38.6362 67.5103 39.1381 67.4199 39.6295C67.2438 40.5825 66.8662 41.4282 66.1353 42.0884C66.0735 42.1442 65.9796 42.1898 65.8984 42.1944C64.6759 42.2642 63.469 42.4433 62.31 42.8343C61.8493 42.9895 61.4204 43.2599 61.0033 43.5231L60.947 43.5586C60.2 44.0296 59.6572 44.7012 59.2162 45.4576C59.0257 45.7852 59.1408 46.2172 59.477 46.4711C59.7298 46.6614 60.1261 46.6057 60.3776 46.3231C60.4829 46.2048 60.58 46.0792 60.6771 45.9535C60.7665 45.8379 60.8558 45.7223 60.9516 45.6124C61.74 44.706 62.7409 44.1773 63.9136 43.9476C64.4888 43.8349 65.0619 43.7806 65.6461 43.8611C65.7711 43.8783 65.8536 43.9244 65.9245 44.0233C66.2029 44.4131 66.3591 44.8521 66.4171 45.3215C66.5581 46.4646 66.4375 47.5696 65.7524 48.5313C65.2105 49.2921 64.4443 49.7757 63.5548 50.0565C62.9085 50.2604 62.2501 50.3524 61.5676 50.3411C60.6278 50.3259 59.6879 50.3288 58.7479 50.3318C58.3403 50.3331 57.9328 50.3344 57.5252 50.3342L54.0192 50.332C50.032 50.3296 46.0448 50.3273 42.0577 50.3193C41.797 50.3186 41.6259 50.3266 41.4701 50.3339C41.2502 50.3441 41.0608 50.353 40.6928 50.3342C40.6306 50.3313 40.0433 50.2175 39.9872 50.192C39.2771 49.8671 38.7766 49.363 38.6201 48.5711C38.4483 47.7012 38.4632 46.8248 38.5044 45.9436C38.5203 45.6051 38.6625 45.4591 38.9589 45.3387C39.8313 44.985 40.7343 44.9404 41.6548 44.9953C42.2285 45.0294 42.7747 45.1613 43.2776 45.4467C43.8289 45.76 44.1816 46.254 44.4749 46.7961C44.5777 46.9864 44.6653 47.185 44.7526 47.3833L44.7526 47.3834L44.7732 47.4301C44.9089 47.7376 45.2237 47.8892 45.5398 47.7787C45.8292 47.6773 46.0921 47.5309 46.1529 47.1942C46.1746 47.0744 46.1788 46.9306 46.1322 46.8231C45.6044 45.6024 44.8408 44.5799 43.6485 43.9275C43.0602 43.6056 42.4164 43.4794 41.7615 43.381C41.2092 43.2982 40.6705 43.3805 40.1311 43.4629C40.069 43.4724 40.0068 43.4819 39.9446 43.4911C39.63 43.5379 39.3162 43.5904 38.9854 43.6458C38.8306 43.6718 38.6719 43.6983 38.5077 43.7252ZM51.7692 22.8357C51.3152 21.5681 50.7813 20.3573 49.7988 19.4153C48.8336 18.4902 47.7086 17.8283 46.4158 17.4526C46.5729 17.4204 46.73 17.3885 46.8872 17.3566C47.2408 17.2848 47.5944 17.2131 47.9473 17.1383C48.3807 17.0463 48.5916 16.8371 48.6428 16.3982C48.6602 16.2468 48.6272 16.0599 48.5484 15.9312C48.0661 15.1444 47.5366 14.3913 46.8425 13.7707C46.8116 13.7431 46.7802 13.7162 46.7486 13.6892L46.7485 13.6891C46.6568 13.6107 46.5636 13.5311 46.4805 13.4286C46.5702 13.4528 46.6611 13.4745 46.752 13.4961L46.752 13.4961C46.9524 13.5439 47.1529 13.5916 47.3421 13.6673L47.3644 13.6762C48.0596 13.9544 48.7565 14.2333 49.4294 14.56C50.1209 14.8959 50.7135 15.3926 51.2955 15.8885C51.796 16.3151 52.2829 16.7639 52.7329 17.243C53.577 18.1409 54.1048 19.23 54.5251 20.3763C54.5615 20.4764 54.5554 20.5402 54.4603 20.6071C53.5438 21.254 52.6913 21.9788 51.8773 22.7499C51.8578 22.7683 51.8362 22.7846 51.8109 22.8037L51.8106 22.804C51.7978 22.8136 51.784 22.824 51.7692 22.8357Z" fill="url(#paint1_linear_67_2)"></path><path fill-rule="evenodd" clip-rule="evenodd" d="M44.6422 13.3306C44.6119 13.3489 44.5817 13.3672 44.5514 13.3856C45.2203 13.7182 45.8578 14.0482 46.394 14.5641C46.9254 15.0757 47.3369 15.6644 47.7667 16.2924C47.7232 16.3031 47.6844 16.3131 47.6486 16.3223C47.5815 16.3396 47.5249 16.3541 47.4677 16.3658C46.1229 16.64 44.7703 16.854 43.3931 16.8603C43.214 16.861 43.0347 16.8468 42.8557 16.8326C42.8291 16.8305 42.8025 16.8284 42.7759 16.8264C42.6282 16.8149 42.574 16.8721 42.5798 17.022C42.5981 17.4978 42.5776 17.9711 42.4477 18.434C42.3106 18.9216 42.099 19.3755 41.8389 19.8089C41.7789 19.9088 41.716 19.9358 41.5953 19.9063C40.6351 19.6723 39.681 19.4087 38.797 18.9643C38.2915 18.7102 37.8038 18.4203 37.3161 18.1305C37.265 18.1001 37.2139 18.0697 37.1628 18.0394C37.1628 18.0327 37.1629 18.0259 37.1629 18.0191L37.1342 18.002C37.023 17.9357 36.9116 17.8695 36.7999 17.8044C36.6654 17.7262 36.6212 17.6812 36.576 17.6802C36.5328 17.6793 36.4888 17.7186 36.3642 17.8076C35.1543 18.672 33.8061 19.2272 32.3725 19.5902C32.0936 19.6608 31.8133 19.7269 31.5237 19.7953C31.3865 19.8277 31.2471 19.8606 31.1048 19.8947C30.7574 18.7862 30.7362 17.6706 30.7561 16.5279C29.1849 16.5016 27.6512 16.373 26.1007 16.0291C27.0749 14.9335 28.0833 13.9244 29.4185 13.2251C28.3371 12.3106 27.3708 11.3448 26.5971 10.1602C26.668 10.1514 26.7361 10.1424 26.8022 10.1336C26.9439 10.1147 27.0767 10.0971 27.2099 10.0857C28.631 9.96422 30.0533 9.89597 31.4791 9.99802C32.7385 10.088 33.9532 10.3817 35.1419 10.7941C35.3781 10.8759 35.6123 10.9633 35.8551 11.054C35.9687 11.0964 36.0842 11.1395 36.2027 11.1831C36.2594 10.9934 36.2398 10.8083 36.2203 10.6256C36.2117 10.545 36.2032 10.4648 36.2013 10.3849C36.197 10.2058 36.1868 10.0269 36.1761 9.84066C36.1713 9.75514 36.1663 9.66807 36.1617 9.57871L37.153 9.40709C37.1529 9.40509 37.1529 9.40311 37.1528 9.40117L38.1127 9.2355C38.2235 9.58774 38.2313 9.94344 38.239 10.2978C38.2414 10.4028 38.2437 10.5076 38.2486 10.6122C38.2529 10.7027 38.2671 10.7926 38.2837 10.8983C38.2921 10.9516 38.3011 11.0089 38.3098 11.0723C38.3553 11.0474 38.3967 11.0266 38.4346 11.0076C38.5065 10.9714 38.5658 10.9415 38.6176 10.9018C39.4478 10.2648 40.3901 9.90415 41.4188 9.73798C42.345 9.58838 43.2743 9.57662 44.2029 9.66923C44.7246 9.72125 45.2451 9.81138 45.758 9.92105C46.3354 10.0448 46.9097 10.1834 47.4974 10.3253C47.7491 10.3861 48.0033 10.4475 48.2612 10.5085C47.2549 11.7475 45.9528 12.5364 44.6422 13.3306ZM37.164 10.3244C37.1658 10.7331 37.1658 11.2051 37.164 11.6137C37.1623 11.2052 37.1622 10.7331 37.164 10.3244ZM37.1641 13.5017C37.1659 13.9172 37.1659 14.4001 37.164 14.8156C37.1622 14.4001 37.1622 13.9172 37.1641 13.5017ZM37.164 16.503C37.1659 16.9151 37.1659 17.3935 37.1641 17.8069C37.1622 17.3935 37.1622 16.9151 37.164 16.503Z" fill="#4CAF50"></path><path d="M9.68357 65.3978C8.89869 65.3978 8.2253 65.1205 7.6634 64.566C7.11041 64.0115 6.83392 63.3407 6.83392 62.5536V54.4636H8.25206V62.5536C8.25206 62.9471 8.3903 63.2825 8.66679 63.5598C8.9522 63.8371 9.29113 63.9757 9.68357 63.9757C10.0671 63.9757 10.3971 63.8371 10.6736 63.5598C10.959 63.2825 11.1017 62.9471 11.1017 62.5536V55.8857H12.5332V62.5536C12.5332 62.9471 12.6715 63.2825 12.948 63.5598C13.2244 63.8371 13.5589 63.9757 13.9513 63.9757C14.3438 63.9757 14.6783 63.8371 14.9547 63.5598C15.2402 63.2825 15.3829 62.9471 15.3829 62.5536V54.4636H16.801V62.5536C16.801 63.3407 16.52 64.0115 15.9581 64.566C15.4052 65.1205 14.7362 65.3978 13.9513 65.3978C13.0951 65.3978 12.3816 65.0758 11.8108 64.4318C11.2578 65.0758 10.5487 65.3978 9.68357 65.3978Z" fill="#E8E4E3"></path><path d="M18.4876 56.8382H19.9058V65.3978H18.4876V56.8382ZM18.6883 54.6782C18.831 54.5351 19.0005 54.4636 19.1967 54.4636C19.3929 54.4636 19.5579 54.5351 19.6917 54.6782C19.8344 54.8124 19.9058 54.9779 19.9058 55.1746C19.9058 55.3714 19.8344 55.5413 19.6917 55.6844C19.5579 55.8186 19.3929 55.8857 19.1967 55.8857C19.0005 55.8857 18.831 55.8186 18.6883 55.6844C18.5545 55.5413 18.4876 55.3714 18.4876 55.1746C18.4876 54.9779 18.5545 54.8124 18.6883 54.6782Z" fill="#E8E4E3"></path><path d="M31.4522 62.7816C31.4522 63.4972 31.1981 64.1143 30.6897 64.6331C30.1813 65.1429 29.5659 65.3978 28.8434 65.3978C28.1299 65.3978 27.5189 65.1474 27.0105 64.6465C26.5022 64.1367 26.2435 63.524 26.2346 62.8085H27.6527C27.6706 63.1305 27.791 63.4033 28.0139 63.6269C28.2458 63.8505 28.5223 63.9623 28.8434 63.9623C29.1734 63.9623 29.4544 63.8505 29.6863 63.6269C29.9182 63.3943 30.0341 63.1126 30.0341 62.7816C30.0341 62.4686 29.9137 62.2092 29.6729 62.0035C29.441 61.7888 29.1556 61.6144 28.8167 61.4803C28.4867 61.3372 28.1522 61.1851 27.8133 61.0241C27.4833 60.8542 27.1978 60.6082 26.957 60.2862C26.7251 59.9553 26.6092 59.5483 26.6092 59.0653C26.6092 58.4482 26.8277 57.925 27.2647 57.4956C27.7018 57.0574 28.228 56.8382 28.8434 56.8382C29.4588 56.8382 29.9851 57.0574 30.4221 57.4956C30.8591 57.925 31.0776 58.4482 31.0776 59.0653H29.6461C29.6461 58.8417 29.5659 58.6539 29.4053 58.5019C29.2537 58.3409 29.0664 58.2604 28.8434 58.2604C28.6204 58.2604 28.4287 58.3409 28.2681 58.5019C28.1165 58.6539 28.0407 58.8417 28.0407 59.0653C28.0407 59.3158 28.1566 59.5304 28.3885 59.7093C28.6294 59.8793 28.9148 60.0313 29.2448 60.1655C29.5837 60.2907 29.9182 60.4427 30.2482 60.6216C30.5782 60.8005 30.8591 61.0733 31.091 61.44C31.3318 61.7978 31.4522 62.245 31.4522 62.7816Z" fill="#E8E4E3"></path><path d="M42.8949 58.0994C43.7333 57.2586 44.7412 56.8382 45.9185 56.8382C47.0958 56.8382 48.0992 57.2586 48.9287 58.0994C49.7671 58.9312 50.1863 59.9374 50.1863 61.118C50.1863 61.3416 50.164 61.5787 50.1194 61.8291H45.9185V60.407H48.6745C48.5229 59.7809 48.1884 59.2666 47.6711 58.8641C47.1627 58.4616 46.5785 58.2604 45.9185 58.2604C45.1158 58.2604 44.4379 58.5421 43.8849 59.1056C43.3409 59.6691 43.0689 60.3399 43.0689 61.118C43.0689 61.8962 43.3409 62.567 43.8849 63.1305C44.4379 63.685 45.1158 63.9623 45.9185 63.9623C46.748 63.9623 47.4392 63.6626 47.9922 63.0634H49.718C49.3523 63.77 48.8306 64.3379 48.1527 64.7673C47.4749 65.1876 46.7301 65.3978 45.9185 65.3978C44.7412 65.3978 43.7333 64.9819 42.8949 64.1501C42.0655 63.3094 41.6507 62.2987 41.6507 61.118C41.6507 59.9374 42.0655 58.9312 42.8949 58.0994Z" fill="#E8E4E3"></path><path d="M22.1566 62.5402V58.3006H21.0997V56.8785H22.1566V54.4636H23.5881V56.8785H25.3856V58.2604L23.5881 58.3006V62.5402V65.3978H22.1566V62.5402Z" fill="#E8E4E3"></path><path d="M63.6038 61.8383L60.9281 56.722H62.8623L64.4187 59.7093L66.0995 54.4636H67.5936L64.0412 65.3978H62.5336L63.6038 61.8383Z" fill="#E8E4E3"></path><path d="M32.4144 61.118V54.4636H33.8459V61.118C33.8459 61.9051 34.1224 62.5759 34.6753 63.1305C35.2283 63.685 35.8973 63.9623 36.6821 63.9623C37.467 63.9623 38.1359 63.685 38.6889 63.1305C39.2508 62.5759 39.5318 61.9051 39.5318 61.118C39.5318 60.322 39.2508 59.6467 38.6889 59.0922C38.1359 58.5376 37.467 58.2604 36.6821 58.2604L34.6753 58.3006V56.8382H36.6821C37.8595 56.8382 38.8628 57.2586 39.6923 58.0994C40.5307 58.9312 40.9499 59.9374 40.9499 61.118C40.9499 62.2987 40.5307 63.3094 39.6923 64.1501C38.8628 64.9819 37.8595 65.3978 36.6821 65.3978C35.5048 65.3978 34.497 64.9819 33.6586 64.1501C32.8291 63.3094 32.4144 62.2987 32.4144 61.118Z" fill="#E8E4E3"></path><path d="M55.4171 56.8382V58.2604H52.5808V61.118V65.3978H51.1627V61.118V56.8382H55.4171Z" fill="#E8E4E3"></path><path d="M60.0944 56.8382V58.2604H57.2581V61.118V65.3978H55.84V61.118V56.8382H60.0944Z" fill="#E8E4E3"></path><defs><linearGradient id="paint0_linear_67_2" x1="37.6621" y1="0.337891" x2="37.6621" y2="75.6621" gradientUnits="userSpaceOnUse"><stop stop-color="#1C1817"></stop><stop offset="1" stop-color="#2C0207"></stop></linearGradient><linearGradient id="paint1_linear_67_2" x1="37.1959" y1="13.4932" x2="37.1959" y2="50.356" gradientUnits="userSpaceOnUse"><stop stop-color="#F7364F"></stop><stop offset="0.5" stop-color="#F00A27"></stop><stop offset="1" stop-color="#C1080B"></stop></linearGradient></defs></svg>